<?xml version="1.0" encoding="UTF-8"?>
<svg version="1.1" xmlns="http://www.w3.org/2000/svg" width="1609" height="1456">
<path d="M0 0 C530.97 0 1061.94 0 1609 0 C1609 480.48 1609 960.96 1609 1456 C1078.03 1456 547.06 1456 0 1456 C0 975.52 0 495.04 0 0 Z " fill="#FEFEFE" transform="translate(0,0)"/>
<path d="M0 0 C503.91 0 1007.82 0 1527 0 C1525.87606233 7.86756367 1524.69150079 13.12743872 1518.4375 18.25 C1512.26275641 22.70786366 1505.72586209 26.65847882 1499.26953125 30.69140625 C1490.45339233 36.20818426 1481.77034979 41.92977728 1473.0769043 47.63708496 C1470.71790841 49.18511535 1468.35798299 50.73172367 1465.99804688 52.27832031 C1461.23806864 55.3984663 1456.48077872 58.52268272 1451.724823 61.6489563 C1449.81735448 62.90225972 1447.90927559 64.1546348 1446.0005188 65.40597534 C1435.3776454 72.37220352 1424.85590092 79.44848357 1414.47608948 86.77235413 C1406.82930458 92.15472684 1399.05664898 97.33648257 1391.26367188 102.50390625 C1386.05878263 105.95522003 1380.87776909 109.44104666 1375.703125 112.9375 C1374.85493698 113.51042786 1374.00674896 114.08335571 1373.13285828 114.67364502 C1371.39783484 115.84580809 1369.66290639 117.01811177 1367.92807007 118.19055176 C1330.19125352 143.68757559 1292.28822982 168.94220244 1254.04589844 193.67626953 C1252.00062705 194.99959429 1249.95715317 196.32565515 1247.9140625 197.65234375 C1239.59002751 203.05338208 1231.23711481 208.40812258 1222.875 213.75 C1214.72254241 218.95863427 1206.59577277 224.20370006 1198.5 229.5 C1189.34137114 235.49162636 1180.13768985 241.40977838 1170.9140625 247.30078125 C1165.09764194 251.01601989 1159.28959621 254.74310352 1153.5 258.5 C1143.45237627 265.01701067 1133.35739724 271.46000682 1123.26708984 277.91064453 C1120.0483291 279.96909278 1116.83060713 282.02915369 1113.61328125 284.08984375 C1107.41058263 288.06260101 1101.20615572 292.03264547 1095 296 C1094.0605957 296.60054199 1093.12119141 297.20108398 1092.15332031 297.81982422 C1077.82659722 306.97286814 1063.43424248 316.01754858 1049 325 C1048.12553223 325.54479004 1047.25106445 326.08958008 1046.35009766 326.65087891 C1006.66912859 351.35933139 966.65040678 375.73255487 925 397 C923.90099365 397.56195068 923.90099365 397.56195068 922.77978516 398.13525391 C918.89534229 400.11510269 914.99587497 402.06144726 911.08007812 403.97851562 C909.618117 404.69645522 908.15869622 405.41957971 906.70117188 406.14648438 C892.14886733 413.39346202 877.27725694 419.45204448 862 425 C861.06091797 425.34192383 860.12183594 425.68384766 859.15429688 426.03613281 C839.57391512 433.07969024 819.61723764 437.35476951 799 440 C798.33983887 440.09571289 797.67967773 440.19142578 796.99951172 440.29003906 C789.28792422 441.3109325 781.51527452 441.24290642 773.75 441.25 C772.59783493 441.25151062 772.59783493 441.25151062 771.4223938 441.25305176 C756.1278644 441.2396121 741.16797088 440.0298314 726 438 C724.989375 437.87141602 723.97875 437.74283203 722.9375 437.61035156 C704.93668626 435.28327268 687.21149842 431.49331311 669.45655823 427.78199768 C668.5672612 427.59612595 667.67796417 427.41025421 666.76171875 427.21875 C665.87504013 427.03332138 664.98836151 426.84789276 664.07481384 426.65684509 C657.70398585 425.33276816 651.32021895 424.09120173 644.92578125 422.88671875 C603.65485082 415.10342601 565.09007418 401.54385438 527 384 C526.3304126 383.69195435 525.6608252 383.38390869 524.97094727 383.06652832 C483.88385468 364.14565731 444.90697356 342.37867118 407.0234375 317.609375 C404.27657214 315.81753227 401.51112494 314.06079735 398.7265625 312.328125 C371.04200046 295.0977464 344.3344067 276.21406734 318 257 C317.24396484 256.44876465 316.48792969 255.8975293 315.70898438 255.32958984 C305.59422822 247.94377274 295.58104415 240.43333742 285.63232422 232.82543945 C280.38196572 228.81048807 275.11086898 224.82631474 269.8125 220.875 C256.93030069 211.25221146 244.31842714 201.2730265 231.68554688 191.32666016 C228.79191173 189.04913794 225.89580677 186.77475993 223 184.5 C221.83332204 183.5833477 220.66665536 182.66668105 219.5 181.75 C218.9225 181.29625 218.345 180.8425 217.75 180.375 C202 168 186.25 155.625 170.5 143.25 C169.6339917 142.5696167 169.6339917 142.5696167 168.75048828 141.87548828 C167.58205848 140.95736646 166.41376452 140.03907174 165.24560547 139.12060547 C162.35699494 136.84977631 159.46620452 134.58185054 156.5703125 132.3203125 C149.64173942 126.90342809 142.78601936 121.40603723 135.97241211 115.84521484 C131.58001373 112.26638123 127.15166309 108.73882042 122.6875 105.25 C117.72850347 101.37306673 112.82702555 97.43576991 107.96484375 93.4375 C98.81687474 85.9166401 89.62744186 78.45389651 80.29199219 71.16674805 C75.79375269 67.64669108 71.3604651 64.05150173 66.9375 60.4375 C61.10221733 55.6735769 55.194824 51.02724544 49.20703125 46.45703125 C44.01239256 42.48954806 38.89087648 38.42827148 33.75732422 34.38232422 C32.02979098 33.02343381 30.29874535 31.66916291 28.56640625 30.31640625 C22.08061607 25.24745511 15.64310917 20.12300591 9.25 14.9375 C8.55793457 14.37691895 7.86586914 13.81633789 7.15283203 13.23876953 C6.50942871 12.71524902 5.86602539 12.19172852 5.203125 11.65234375 C4.63239258 11.18820068 4.06166016 10.72405762 3.47363281 10.24584961 C2 9 2 9 0 7 C0 4.69 0 2.38 0 0 Z " fill="#000000" transform="translate(47,1006)"/>
<path d="M0 0 C66 0 132 0 200 0 C200 50.22185433 200 50.22185433 199.81487274 71.20268822 C199.77922138 75.25810305 199.7459535 79.31353185 199.71343994 83.36897278 C199.70773869 84.07928058 199.70203743 84.78958838 199.69616342 85.52142066 C199.68450994 86.97382094 199.67286413 88.42622129 199.6612258 89.8786217 C199.64354527 92.07636589 199.62565716 94.27410831 199.60771561 96.4718504 C199.20947538 145.37647081 198.86399808 194.28275771 198.76782227 243.18899536 C198.7576053 248.17983015 198.74033304 253.17055823 198.71655273 258.16134644 C198.68912752 264.00076529 198.67684064 269.84002867 198.67592621 275.67951012 C198.67330195 277.77982552 198.66576764 279.88014287 198.6523819 281.98041725 C198.53712727 301.07725206 198.94733058 321.45435963 205.625 339.5625 C206.14332397 341.03541504 206.14332397 341.03541504 206.67211914 342.53808594 C213.64108958 361.60711282 225.48446025 376.80934485 239.33203125 391.46875 C250.23918452 403.1688304 259.45249943 416.22509525 268.89819336 429.10546875 C279.03388662 442.88989823 289.8383045 456.13114404 300.91625977 469.16650391 C303.79566283 472.55953022 306.63208071 475.98272507 309.4375 479.4375 C312.84475982 483.62824737 316.34119908 487.72902172 319.875 491.8125 C324.30478281 496.94201653 328.55373382 502.17911367 332.70996094 507.53173828 C338.14035344 514.50674993 343.79693174 521.29404588 349.43408203 528.10205078 C351.492582 530.59702721 353.52690537 533.11132076 355.5625 535.625 C385.27058464 571.85570838 418.02232583 592.52212974 460.96533203 611.10351562 C462.84927735 611.93359089 464.70558389 612.82564489 466.55859375 613.72265625 C470.46259468 615.17170086 473.89302633 615.45886441 478 615.375 C478.7427417 615.36339844 479.4854834 615.35179687 480.25073242 615.33984375 C511.27512226 614.44106496 538.08058736 596.41261726 561 577 C561.56783203 576.52240234 562.13566406 576.04480469 562.72070312 575.55273438 C571.80550254 567.93086075 571.80550254 567.93086075 580.31567383 559.68334961 C582.03057351 557.96944422 583.8158794 556.40144174 585.66015625 554.828125 C590.15112546 550.92268852 594.36686037 546.78092138 598.5625 542.5625 C599.27857422 541.85029297 599.99464844 541.13808594 600.73242188 540.40429688 C604.77473 536.35463241 608.63663572 532.20730532 612.37182617 527.87329102 C614.8017586 525.0775388 617.3412892 522.38881698 619.875 519.6875 C625.17467287 513.9893368 630.14130827 508.08000222 635 502 C640.1385198 495.62393093 645.36998917 489.38850671 650.8828125 483.33203125 C652.78051169 481.24176111 654.64733415 479.13013885 656.5 477 C659.08653312 474.02608289 661.72194125 471.10219257 664.375 468.1875 C669.10615345 462.93862774 673.55876785 457.49437924 678 452 C679.01082767 450.76879913 680.02260049 449.53837382 681.03515625 448.30859375 C685.98624412 442.27868124 690.87119215 436.23665142 695.47607422 429.93652344 C703.32607423 419.19883548 712.20028485 409.62154959 721.75 400.375 C734.68510313 387.53589021 743.47705822 372.29665488 749 355 C749.31769348 354.13293427 749.63538696 353.26586853 749.96270752 352.37252808 C754.2769226 338.3458078 754.43112058 323.40839988 754.328125 308.8671875 C754.32536687 306.87218862 754.32389117 304.87718765 754.32354736 302.88218689 C754.31848458 297.37800019 754.2939304 291.87404921 754.26589966 286.3699379 C754.24435648 281.63448568 754.23447333 276.89903726 754.22460938 272.16354847 C754.18882141 255.16102878 754.11016402 238.15880248 754.02554321 221.15647125 C753.99845973 215.70887018 753.97224458 210.26126505 753.94604492 204.81365967 C753.77128858 168.5744059 753.58729555 132.33519603 753.37431097 96.09614503 C753.3565601 93.07568515 753.33889566 90.05522477 753.3212471 87.03476429 C753.27143892 78.52585704 753.22127181 70.01695319 753.16860747 61.50806308 C753.14733655 58.04526186 753.12679107 54.58245655 753.10638571 51.11965013 C753.09704465 49.56190362 753.08740413 48.00415887 753.0773797 46.44641662 C752.97791674 30.96388552 753 15.48349777 753 0 C819 0 885 0 953 0 C953 283.8 953 567.6 953 860 C887 860 821 860 753 860 C751.77386081 746.70473868 751.77386081 746.70473868 751.5078125 720.80859375 C751.4969129 719.74920869 751.48601331 718.68982362 751.47478342 717.59833598 C751.16133625 687.07757392 750.88557996 656.55683816 750.6796875 626.03515625 C750.67411827 625.21423241 750.66854904 624.39330856 750.66281104 623.54750824 C750.5588298 608.20135845 750.46063232 592.85518227 750.37695712 577.50890756 C750.21587385 547.99554094 749.99593865 518.49901854 749 489 C744.42485803 493.54960775 739.85378313 498.10327322 735.28540039 502.65966797 C733.73358112 504.20648501 732.18086219 505.75240007 730.62719727 507.29736328 C728.3831559 509.52915787 726.14246196 511.76426845 723.90234375 514 C722.87378517 515.02081665 722.87378517 515.02081665 721.82444763 516.06225586 C717.87243767 520.01381365 714.10752762 524.07063272 710.46705627 528.31152344 C708.18237223 530.94103093 705.69116957 533.33266386 703.1875 535.75 C700.63449687 538.37594607 698.25332386 541.12619486 695.8515625 543.89013672 C684.12049243 557.25774056 671.70125427 570.59293241 658.15234375 582.13671875 C646.49009706 592.23271089 635.66819904 603.24115556 624.83227539 614.20458984 C619.94061423 619.14288443 615.02986429 623.99390773 609.73706055 628.50805664 C607.55606112 630.38129451 605.47457531 632.3471403 603.38671875 634.32275391 C596.79696815 640.54427878 589.88927765 646.20254748 582.68798828 651.69726562 C581.09559275 652.92622463 579.52924273 654.18872016 577.96484375 655.453125 C554.01678326 674.61157339 525.12024219 689.70156426 495 696 C494.24960449 696.17442627 493.49920898 696.34885254 492.72607422 696.52856445 C458.74451666 704.06466102 423.6345175 691.54486524 395.06640625 673.55859375 C386.70328276 668.15477833 378.7855277 662.19847782 371 656 C370.07703125 655.27167969 369.1540625 654.54335938 368.203125 653.79296875 C361.44720374 648.37456369 355.10913053 642.57033661 348.7956543 636.65209961 C347.54830249 635.50446811 346.2854709 634.37352628 345.01098633 633.25610352 C336.74387313 625.98547667 329.02093797 618.17172157 321.24926758 610.37963867 C318.81118368 607.93618078 316.36778211 605.49813193 313.92382812 603.06054688 C312.35124167 601.48729979 310.77896536 599.91374263 309.20703125 598.33984375 C308.48707474 597.62191147 307.76711823 596.90397919 307.02534485 596.16429138 C303.03385434 592.15451178 299.20975514 588.05198727 295.52043152 583.76197815 C293.23938702 581.1185506 290.86941134 578.56453933 288.5 576 C284.85485586 572.04230863 281.26084188 568.04820826 277.734375 563.984375 C274.95834569 560.80819733 272.12763659 557.6817017 269.30078125 554.55078125 C267.8358989 552.92672663 266.37456169 551.29946215 264.91796875 549.66796875 C260.34323657 544.55004016 255.6912511 539.51082542 251 534.5 C234.67770468 517.06343598 218.29928617 499.16149717 204 480 C203.98969254 481.15493454 203.97938507 482.30986908 203.96876526 483.49980164 C203.86842074 494.70924156 203.76558535 505.91865661 203.66066074 517.12805462 C203.60686609 522.88264204 203.5537776 528.63723361 203.50268555 534.3918457 C203.26894818 560.65275734 202.95284194 586.90993698 202.49609375 613.16796875 C201.98967191 642.38763177 201.72633267 671.60635166 201.52606201 700.82952881 C201.16172796 753.88834167 200.58304934 806.94250989 200 860 C134 860 68 860 0 860 C0 576.2 0 292.4 0 0 Z " fill="#000000" transform="translate(303,62)"/>
<path d="M0 0 C306.9 0 613.8 0 930 0 C922.16010269 9.14654687 914.06342941 17.17677421 904.64892578 24.671875 C902.79035873 26.16885527 900.95482855 27.69145543 899.12109375 29.21875 C891.31274556 35.71810524 883.41165973 42.04471724 875.30834961 48.17260742 C870.43306845 51.87045795 865.66497993 55.67793102 860.9375 59.5625 C853.73717554 65.47141371 846.32988976 71.06242986 838.85351562 76.61523438 C835.53906742 79.09146596 832.26673328 81.62143553 828.9921875 84.15014648 C825.32184649 86.98403021 821.6409159 89.80354508 817.95410156 92.6159668 C804.10510376 103.18269528 790.37212959 113.89735187 776.68554688 124.67333984 C773.20945438 127.40930256 769.73010903 130.14112894 766.2512207 132.87353516 C763.32085066 135.1754131 760.39166135 137.47876258 757.46484375 139.78515625 C751.29941251 144.64111536 745.11155622 149.46438071 738.88330078 154.23950195 C735.00531421 157.21659523 731.15325536 160.22506272 727.3125 163.25 C715.70711516 172.38438184 704.08752172 181.49480272 692.24609375 190.32226562 C687.57663086 193.80605117 682.94199242 197.33288761 678.31738281 200.87597656 C668.00696326 208.7705343 657.58853127 216.48293383 647 224 C646.20770996 224.56428711 645.41541992 225.12857422 644.59912109 225.70996094 C619.28841441 243.70801649 593.46258948 260.38969517 565 273 C564.31695801 273.30663574 563.63391602 273.61327148 562.93017578 273.92919922 C545.29542186 281.69385513 524.95777465 285.11136869 505.765625 285.203125 C504.78627487 285.21000336 503.80692474 285.21688171 502.79789734 285.22396851 C499.61522711 285.24117543 496.43271443 285.24743692 493.25 285.25 C492.16252472 285.25167175 491.07504944 285.25334351 489.95462036 285.25506592 C470.17341923 285.25688229 450.65189926 284.22457963 431 282 C430.3086496 281.92278717 429.61729919 281.84557434 428.90499878 281.76602173 C421.23630159 280.90014987 413.63724947 280.02687773 406.1875 277.9375 C405.41656006 277.72617432 404.64562012 277.51484863 403.85131836 277.29711914 C363.15794408 265.84701549 325.04911914 247.9499081 289 226 C287.9785791 225.37947754 286.9571582 224.75895508 285.90478516 224.11962891 C273.68259093 216.66372877 261.75165251 208.92886615 250.14990234 200.54199219 C246.99389302 198.27838159 243.80561577 196.06190018 240.6184082 193.8425293 C224.83140805 182.84787669 209.31731004 171.55767592 194.046875 159.85546875 C189.60008126 156.44978942 185.11857424 153.09353894 180.625 149.75 C174.18549781 144.94623482 167.89729233 139.97319206 161.64453125 134.9296875 C158.14330782 132.10675051 154.60683584 129.33097881 151.0625 126.5625 C145.30568402 122.05932899 139.62892008 117.46321117 133.96777344 112.84057617 C129.6226511 109.29899666 125.23560893 105.8184942 120.8125 102.375 C115.72713619 98.41208135 110.78554128 94.31106257 105.88720703 90.12011719 C101.49682966 86.3804115 96.99161693 82.80807089 92.44140625 79.265625 C87.22335362 75.19692317 82.09312933 71.02594411 76.96826172 66.84082031 C72.62284131 63.29932895 68.23574894 59.8186032 63.8125 56.375 C58.72924537 52.413725 53.78826798 48.31594495 48.89379883 44.12451172 C45.00715398 40.81159567 41.03236257 37.63337505 37 34.5 C31.76406742 30.43075401 26.66079319 26.23654992 21.62646484 21.9206543 C18.35850021 19.12463965 15.0266717 16.44340017 11.625 13.8125 C7.24704264 10.34304033 3.24337126 6.57508662 0 2 C0 1.34 0 0.68 0 0 Z " fill="#FEFEFE" transform="translate(316,1072)"/>
</svg>
